<?xml version="1.0" encoding="UTF-8" standalone="no"?>
<!DOCTYPE svg PUBLIC "-//W3C//DTD SVG 1.1//EN" "http://www.w3.org/Graphics/SVG/1.1/DTD/svg11.dtd">
<svg width="100%" height="100%" viewBox="0 0 409 71" version="1.1" xmlns="http://www.w3.org/2000/svg" xmlns:xlink="http://www.w3.org/1999/xlink" xml:space="preserve" xmlns:serif="http://www.serif.com/" style="fill-rule:evenodd;clip-rule:evenodd;stroke-linejoin:round;stroke-miterlimit:2;">
    <g id="path2" transform="matrix(1,0,0,1,-29.6855,-327.858)">
        <rect x="29.686" y="327.858" width="408.039" height="70.84" style="fill:none;fill-rule:nonzero;"/>
    </g>
    <g id="Layer1001" transform="matrix(1,0,0,1,-29.6855,-327.858)">
        <g id="Layer1002">
            <path id="path4" d="M58.009,381.825L76.555,344.732L58.009,344.732L48.736,363.28C43.616,373.519 47.768,381.825 58.009,381.825Z" style="fill:rgb(0,126,63);"/>
            <path id="path6" d="M81.185,344.732L99.731,344.732L81.185,381.825L62.639,381.825L81.185,344.732Z" style="fill:rgb(0,61,143);"/>
        </g>
        <path id="path9" d="M106.127,381.79L105.767,381.79L103.515,376.555L101.267,381.79L100.907,381.79L98.156,373.934L99.615,373.934L101.259,378.981L103.306,373.934L103.664,373.934L105.774,378.981L107.542,373.934L108.885,373.934L106.127,381.79ZM114.027,381.165L114.552,379.844C114.819,380.04 115.155,380.204 115.554,380.334C115.954,380.466 116.312,380.532 116.628,380.532C117.187,380.532 117.638,380.378 117.976,380.072C118.316,379.765 118.486,379.376 118.486,378.903C118.486,378.547 118.392,378.219 118.204,377.915C118.015,377.611 117.539,377.28 116.777,376.92L115.929,376.525C115.213,376.189 114.711,375.792 114.427,375.334C114.14,374.873 113.998,374.322 113.998,373.674C113.998,372.89 114.277,372.238 114.831,371.721C115.387,371.204 116.101,370.947 116.971,370.947C118.135,370.947 118.944,371.135 119.4,371.513L118.976,372.763C118.785,372.623 118.491,372.491 118.098,372.361C117.706,372.231 117.343,372.167 117.008,372.167C116.52,372.167 116.135,372.304 115.856,372.584C115.574,372.861 115.434,373.218 115.434,373.652C115.434,373.922 115.485,374.165 115.586,374.385C115.686,374.606 115.826,374.79 116.005,374.939C116.184,375.086 116.552,375.295 117.108,375.564L117.971,375.973C118.687,376.312 119.191,376.719 119.481,377.189C119.77,377.662 119.915,378.26 119.915,378.988C119.915,379.778 119.598,380.449 118.964,380.998C118.329,381.55 117.481,381.824 116.419,381.824C115.485,381.824 114.689,381.604 114.027,381.165ZM122.924,380.425L127.189,380.425L127.189,381.645L120.785,381.645L120.785,381.288L125.158,375.174L120.856,375.174L120.856,373.954L127.148,373.954L127.148,374.341L122.924,380.425ZM134.251,374.579L133.575,375.542C133.437,375.403 133.192,375.27 132.839,375.147C132.486,375.022 132.14,374.959 131.802,374.959C131.06,374.959 130.471,375.219 130.035,375.738C129.599,376.258 129.381,376.971 129.381,377.876C129.381,378.775 129.604,379.461 130.05,379.932C130.493,380.405 131.111,380.64 131.903,380.64C132.515,380.64 133.133,380.403 133.756,379.929L134.293,381.079C133.56,381.552 132.653,381.79 131.572,381.79C130.523,381.79 129.658,381.437 128.971,380.733C128.287,380.03 127.944,379.077 127.944,377.876C127.944,376.65 128.3,375.667 129.01,374.924C129.724,374.182 130.697,373.812 131.93,373.812C132.329,373.812 132.758,373.895 133.224,374.062C133.687,374.231 134.03,374.403 134.251,374.579ZM137.187,380.425L141.452,380.425L141.452,381.645L135.048,381.645L135.048,381.288L139.42,375.174L135.118,375.174L135.118,373.954L141.411,373.954L141.411,374.341L137.187,380.425ZM149.188,377.932L143.643,377.932C143.643,378.834 143.891,379.525 144.384,380.008C144.82,380.43 145.379,380.641 146.065,380.641C146.845,380.641 147.497,380.413 148.019,379.959L148.592,380.942C148.381,381.153 148.058,381.334 147.622,381.489C147.077,381.69 146.47,381.79 145.798,381.79C144.832,381.79 144.011,381.461 143.334,380.805C142.585,380.082 142.207,379.111 142.207,377.89C142.207,376.621 142.594,375.604 143.364,374.839C144.053,374.153 144.869,373.812 145.813,373.812C146.908,373.812 147.769,374.121 148.391,374.738C148.994,375.332 149.296,376.118 149.296,377.099C149.296,377.403 149.259,377.679 149.188,377.932ZM145.879,374.959C145.269,374.959 144.759,375.157 144.347,375.549C143.955,375.922 143.734,376.385 143.68,376.942L147.938,376.942C147.938,376.39 147.766,375.932 147.421,375.564C147.043,375.16 146.528,374.959 145.879,374.959ZM156.533,374.579L155.857,375.542C155.72,375.403 155.475,375.27 155.122,375.148C154.769,375.023 154.423,374.959 154.085,374.959C153.342,374.959 152.754,375.219 152.318,375.738C151.881,376.258 151.663,376.971 151.663,377.876C151.663,378.775 151.886,379.461 152.332,379.932C152.776,380.405 153.394,380.64 154.185,380.64C154.798,380.64 155.416,380.403 156.038,379.929L156.575,381.079C155.842,381.552 154.935,381.79 153.854,381.79C152.805,381.79 151.94,381.437 151.254,380.733C150.57,380.03 150.227,379.077 150.227,377.876C150.227,376.65 150.582,375.667 151.293,374.924C152.006,374.182 152.979,373.812 154.212,373.812C154.612,373.812 155.041,373.895 155.506,374.062C155.97,374.231 156.313,374.403 156.533,374.579ZM159.421,371.047C159.654,371.047 159.855,371.128 160.019,371.294C160.185,371.459 160.267,371.657 160.267,371.888C160.267,372.12 160.186,372.321 160.019,372.486C159.855,372.652 159.654,372.733 159.421,372.733C159.191,372.733 158.992,372.652 158.828,372.486C158.664,372.321 158.58,372.12 158.58,371.888C158.58,371.652 158.661,371.454 158.825,371.29C158.987,371.128 159.186,371.047 159.421,371.047ZM158.673,381.645L158.673,375.104L157.617,375.104L157.617,373.954L160.038,373.954L160.038,381.645L158.673,381.645ZM166.938,381.645L166.938,377.172C166.938,376.353 166.816,375.78 166.568,375.451C166.323,375.123 165.909,374.959 165.33,374.959C165.019,374.959 164.693,375.055 164.352,375.241C164.014,375.427 163.752,375.657 163.571,375.93L163.571,381.645L162.208,381.645L162.208,373.954L163.139,373.954L163.571,374.947C164.022,374.189 164.757,373.812 165.777,373.812C167.46,373.812 168.304,374.836 168.304,376.885L168.304,381.645L166.938,381.645ZM171.649,371.047C171.882,371.047 172.083,371.128 172.247,371.294C172.414,371.459 172.495,371.657 172.495,371.888C172.495,372.12 172.414,372.321 172.247,372.486C172.083,372.652 171.882,372.733 171.649,372.733C171.419,372.733 171.22,372.652 171.056,372.486C170.892,372.321 170.809,372.12 170.809,371.888C170.809,371.652 170.889,371.454 171.054,371.29C171.215,371.128 171.414,371.047 171.649,371.047ZM170.902,381.645L170.902,375.104L169.845,375.104L169.845,373.954L172.267,373.954L172.267,381.645L170.902,381.645ZM180.912,377.932L175.368,377.932C175.368,378.834 175.615,379.525 176.108,380.008C176.544,380.43 177.103,380.641 177.789,380.641C178.569,380.641 179.221,380.413 179.743,379.959L180.316,380.942C180.105,381.153 179.782,381.334 179.346,381.489C178.802,381.69 178.194,381.79 177.522,381.79C176.557,381.79 175.735,381.461 175.059,380.805C174.309,380.082 173.931,379.111 173.931,377.89C173.931,376.621 174.319,375.604 175.088,374.839C175.777,374.153 176.593,373.812 177.537,373.812C178.633,373.812 179.493,374.121 180.115,374.738C180.718,375.332 181.02,376.118 181.02,377.099C181.02,377.403 180.983,377.679 180.912,377.932ZM177.603,374.959C176.993,374.959 176.483,375.157 176.071,375.549C175.679,375.922 175.458,376.385 175.404,376.942L179.662,376.942C179.662,376.39 179.49,375.932 179.145,375.564C178.767,375.16 178.252,374.959 177.603,374.959Z" style="fill:rgb(0,61,143);"/>
        <path id="path11" d="M107.587,364.558L107.587,364.2L112.112,355.329L107.658,355.329L107.658,354.038L114.085,354.038L114.085,354.395L109.548,363.266L114.244,363.266L114.244,364.557L107.587,364.558ZM120.276,363.675C119.73,364.359 118.894,364.702 117.771,364.702C117.166,364.702 116.644,364.482 116.2,364.045C115.759,363.607 115.536,363.062 115.536,362.41C115.536,361.631 115.879,360.972 116.56,360.432C117.242,359.893 118.112,359.624 119.171,359.624C119.457,359.624 119.783,359.687 120.146,359.81C120.146,358.567 119.592,357.945 118.482,357.945C117.629,357.945 116.972,358.172 116.514,358.633L115.938,357.491C116.198,357.28 116.555,357.101 117.011,356.949C117.47,356.797 117.906,356.724 118.323,356.724C119.438,356.724 120.249,356.976 120.754,357.484C121.259,357.991 121.511,358.798 121.511,359.905L121.511,362.663C121.511,363.337 121.712,363.788 122.114,364.011L122.114,364.695C121.558,364.695 121.144,364.614 120.869,364.457C120.592,364.3 120.396,364.038 120.276,363.675ZM120.146,360.78C119.715,360.685 119.413,360.636 119.242,360.636C118.553,360.636 117.989,360.815 117.555,361.168C117.119,361.523 116.901,361.942 116.901,362.425C116.901,363.224 117.372,363.624 118.315,363.624C119.004,363.624 119.614,363.295 120.146,362.641L120.146,360.78ZM129.46,357.491L128.784,358.454C128.646,358.315 128.402,358.182 128.049,358.06C127.695,357.935 127.35,357.871 127.012,357.871C126.269,357.871 125.681,358.131 125.245,358.65C124.808,359.17 124.59,359.883 124.59,360.788C124.59,361.687 124.813,362.374 125.259,362.844C125.703,363.317 126.321,363.553 127.112,363.553C127.725,363.553 128.343,363.315 128.965,362.842L129.502,363.991C128.769,364.464 127.862,364.702 126.781,364.702C125.732,364.702 124.867,364.349 124.181,363.646C123.497,362.942 123.154,361.989 123.154,360.788C123.154,359.562 123.509,358.579 124.22,357.837C124.933,357.094 125.906,356.724 127.139,356.724C127.539,356.724 127.968,356.807 128.433,356.974C128.896,357.143 129.24,357.315 129.46,357.491ZM135.679,364.557L135.679,359.724C135.679,359.15 135.537,358.697 135.255,358.369C134.973,358.038 134.576,357.871 134.063,357.871C133.733,357.871 133.402,357.969 133.069,358.163C132.735,358.356 132.48,358.582 132.304,358.842L132.304,364.557L130.941,364.557L130.941,353.714L132.304,353.714L132.304,357.714C132.485,357.432 132.779,357.197 133.184,357.006C133.588,356.817 134.005,356.724 134.436,356.724C135.25,356.724 135.89,356.991 136.35,357.528C136.814,358.065 137.044,358.795 137.044,359.724L137.044,364.558L135.679,364.557ZM138.471,360.695C138.471,359.506 138.792,358.547 139.431,357.817C140.069,357.089 140.912,356.724 141.953,356.724C143.056,356.724 143.909,357.074 144.517,357.775C145.125,358.476 145.429,359.449 145.429,360.695C145.429,361.935 145.118,362.913 144.495,363.629C143.875,364.344 143.027,364.702 141.953,364.702C140.858,364.702 140.002,364.339 139.389,363.616C138.777,362.893 138.471,361.92 138.471,360.695ZM139.907,360.695C139.907,362.624 140.591,363.587 141.953,363.587C142.591,363.587 143.091,363.33 143.451,362.812C143.814,362.295 143.993,361.589 143.993,360.695C143.993,358.788 143.314,357.837 141.953,357.837C141.331,357.837 140.836,358.089 140.463,358.597C140.093,359.104 139.907,359.805 139.907,360.695ZM151.743,364.55L151.743,363.984C151.267,364.457 150.579,364.695 149.674,364.695C148.711,364.695 147.932,364.349 147.333,363.66C146.735,362.972 146.436,362.053 146.436,360.903C146.436,359.749 146.78,358.763 147.471,357.947C148.16,357.131 148.981,356.724 149.932,356.724C150.728,356.724 151.331,356.91 151.743,357.283L151.743,353.714L153.106,353.714L153.106,364.55L151.743,364.55ZM151.743,358.648C151.397,358.131 150.927,357.871 150.329,357.871C149.596,357.871 149.003,358.146 148.552,358.689C148.098,359.236 147.873,359.93 147.873,360.773C147.873,362.626 148.713,363.553 150.4,363.553C150.615,363.553 150.873,363.484 151.174,363.347C151.476,363.212 151.667,363.067 151.743,362.913L151.743,358.648ZM159.792,364.557L159.792,360.084C159.792,359.265 159.67,358.692 159.422,358.364C159.177,358.035 158.763,357.871 158.184,357.871C157.873,357.871 157.547,357.967 157.206,358.153C156.868,358.339 156.606,358.57 156.424,358.842L156.424,364.557L155.062,364.557L155.062,356.866L155.993,356.866L156.424,357.859C156.875,357.101 157.611,356.724 158.63,356.724C160.314,356.724 161.157,357.748 161.157,359.798L161.157,364.557L159.792,364.557ZM164.503,353.959C164.736,353.959 164.937,354.04 165.101,354.207C165.268,354.371 165.349,354.569 165.349,354.8C165.349,355.033 165.268,355.233 165.101,355.398C164.937,355.565 164.736,355.645 164.503,355.645C164.273,355.645 164.074,355.565 163.91,355.398C163.746,355.233 163.663,355.033 163.663,354.8C163.663,354.565 163.743,354.366 163.907,354.202C164.069,354.04 164.268,353.959 164.503,353.959ZM163.755,364.557L163.755,358.016L162.699,358.016L162.699,356.866L165.121,356.866L165.121,364.557L163.755,364.557ZM166.785,360.695C166.785,359.506 167.106,358.547 167.746,357.817C168.383,357.089 169.226,356.724 170.268,356.724C171.371,356.724 172.224,357.074 172.832,357.775C173.44,358.476 173.744,359.449 173.744,360.695C173.744,361.935 173.432,362.913 172.81,363.629C172.19,364.344 171.342,364.702 170.268,364.702C169.172,364.702 168.317,364.339 167.704,363.616C167.092,362.893 166.785,361.92 166.785,360.695ZM168.221,360.695C168.221,362.624 168.905,363.587 170.268,363.587C170.905,363.587 171.405,363.33 171.766,362.812C172.128,362.295 172.307,361.589 172.307,360.695C172.307,358.788 171.628,357.837 170.268,357.837C169.646,357.837 169.15,358.089 168.778,358.597C168.408,359.104 168.222,359.805 168.222,360.695ZM176.545,364.133L176.545,367.572L175.182,367.572L175.182,356.866L176.545,356.866L176.545,357.498C177.062,356.981 177.687,356.724 178.42,356.724C179.511,356.724 180.362,357.062 180.969,357.744C181.577,358.423 181.881,359.418 181.881,360.729C181.881,361.898 181.575,362.852 180.962,363.592C180.35,364.332 179.464,364.702 178.305,364.702C177.979,364.702 177.631,364.643 177.261,364.528C176.888,364.413 176.651,364.283 176.545,364.134ZM176.545,358.525L176.545,363.006C176.631,363.136 176.815,363.258 177.092,363.376C177.369,363.494 177.639,363.553 177.903,363.553C179.597,363.553 180.445,362.594 180.445,360.68C180.445,359.707 180.244,358.996 179.842,358.547C179.44,358.096 178.796,357.871 177.911,357.871C177.719,357.871 177.484,357.94 177.207,358.072C176.928,358.207 176.709,358.359 176.545,358.525ZM182.871,360.695C182.871,359.506 183.193,358.547 183.832,357.817C184.47,357.089 185.313,356.724 186.354,356.724C187.457,356.724 188.31,357.074 188.918,357.775C189.526,358.476 189.83,359.449 189.83,360.695C189.83,361.935 189.519,362.913 188.896,363.629C188.276,364.344 187.428,364.702 186.354,364.702C185.259,364.702 184.403,364.339 183.79,363.616C183.178,362.893 182.871,361.92 182.871,360.695ZM184.308,360.695C184.308,362.624 184.991,363.587 186.354,363.587C186.992,363.587 187.492,363.33 187.852,362.812C188.215,362.295 188.394,361.589 188.394,360.695C188.394,358.788 187.715,357.837 186.354,357.837C185.732,357.837 185.237,358.089 184.864,358.597C184.494,359.104 184.308,359.805 184.308,360.695ZM200.171,364.557L200.171,359.69C200.171,358.479 199.647,357.871 198.6,357.871C198.269,357.871 197.96,357.974 197.673,358.177C197.387,358.381 197.191,358.611 197.085,358.871L197.085,364.557L195.72,364.557L195.72,359.092C195.72,358.714 195.578,358.418 195.293,358.199C195.007,357.981 194.632,357.871 194.161,357.871C193.889,357.871 193.597,357.976 193.288,358.187C192.98,358.398 192.762,358.631 192.632,358.886L192.632,364.557L191.269,364.557L191.269,356.866L192.159,356.866L192.61,357.758C193.137,357.067 193.796,356.724 194.585,356.724C195.686,356.724 196.458,357.065 196.896,357.751C197.051,357.459 197.335,357.214 197.752,357.018C198.169,356.822 198.597,356.724 199.036,356.724C199.833,356.724 200.448,356.959 200.882,357.43C201.318,357.903 201.536,358.564 201.536,359.415L201.536,364.557L200.171,364.557ZM202.97,360.695C202.97,359.506 203.291,358.547 203.931,357.817C204.568,357.089 205.411,356.724 206.453,356.724C207.556,356.724 208.409,357.074 209.017,357.775C209.625,358.476 209.929,359.449 209.929,360.695C209.929,361.935 209.617,362.913 208.995,363.629C208.375,364.344 207.527,364.702 206.453,364.702C205.358,364.702 204.502,364.339 203.889,363.616C203.277,362.893 202.97,361.92 202.97,360.695ZM204.407,360.695C204.407,362.624 205.09,363.587 206.453,363.587C207.09,363.587 207.591,363.33 207.951,362.812C208.314,362.295 208.492,361.589 208.492,360.695C208.492,358.788 207.813,357.837 206.453,357.837C205.831,357.837 205.335,358.089 204.963,358.597C204.593,359.104 204.407,359.805 204.407,360.695ZM215.547,358.18C215.25,357.974 214.949,357.871 214.647,357.871C214.164,357.871 213.743,358.094 213.38,358.54C213.02,358.986 212.838,359.521 212.838,360.148L212.838,364.557L211.473,364.557L211.473,356.866L212.838,356.866L212.838,358.094C213.336,357.18 214.076,356.724 215.057,356.724C215.301,356.724 215.654,356.766 216.113,356.851L215.547,358.18ZM216.579,364.097L217.061,362.805C217.821,363.303 218.434,363.553 218.9,363.553C219.74,363.553 220.162,363.197 220.162,362.489C220.162,361.981 219.755,361.545 218.941,361.182C218.314,360.896 217.892,360.677 217.674,360.528C217.456,360.381 217.267,360.212 217.108,360.023C216.946,359.834 216.829,359.633 216.748,359.42C216.669,359.207 216.63,358.979 216.63,358.734C216.63,358.101 216.86,357.609 217.319,357.253C217.78,356.9 218.38,356.724 219.123,356.724C219.682,356.724 220.387,356.9 221.24,357.253L220.853,358.518C220.311,358.087 219.767,357.871 219.223,357.871C218.897,357.871 218.623,357.949 218.399,358.101C218.177,358.256 218.066,358.449 218.066,358.685C218.066,359.177 218.346,359.55 218.907,359.805L219.883,360.249C220.481,360.523 220.917,360.832 221.189,361.182C221.463,361.533 221.598,361.969 221.598,362.496C221.598,363.185 221.358,363.727 220.873,364.116C220.39,364.506 219.721,364.702 218.863,364.702C218.054,364.702 217.292,364.501 216.579,364.097ZM228.005,364.557L225.591,360.709L224.4,361.937L224.4,364.557L223.037,364.557L223.037,353.714L224.4,353.714L224.4,360.442L227.344,356.866L228.939,356.866L226.476,359.79L229.483,364.557L228.005,364.557ZM231.861,353.959C232.094,353.959 232.295,354.04 232.459,354.207C232.625,354.371 232.707,354.569 232.707,354.8C232.707,355.033 232.625,355.233 232.459,355.398C232.295,355.565 232.094,355.645 231.861,355.645C231.63,355.645 231.432,355.565 231.268,355.398C231.104,355.233 231.02,355.033 231.02,354.8C231.02,354.565 231.101,354.366 231.265,354.202C231.427,354.04 231.625,353.959 231.861,353.959ZM231.113,364.557L231.113,358.016L230.057,358.016L230.057,356.866L232.478,356.866L232.478,364.557L231.113,364.557ZM239.185,354.038L240.621,354.038L240.621,361.239C240.621,361.881 240.824,362.41 241.231,362.822C241.638,363.236 242.177,363.445 242.849,363.445C243.557,363.445 244.114,363.244 244.521,362.842C244.927,362.44 245.131,361.893 245.131,361.204L245.131,354.038L246.567,354.038L246.567,361.354C246.567,362.418 246.236,363.246 245.572,363.842C244.91,364.44 244.006,364.736 242.861,364.736C241.685,364.736 240.778,364.445 240.14,363.861C239.503,363.278 239.185,362.44 239.185,361.347L239.185,354.038ZM253.347,364.557L253.347,360.084C253.347,359.265 253.224,358.692 252.977,358.364C252.732,358.035 252.317,357.871 251.739,357.871C251.428,357.871 251.102,357.967 250.761,358.153C250.423,358.339 250.161,358.57 249.979,358.842L249.979,364.557L248.616,364.557L248.616,356.866L249.548,356.866L249.979,357.859C250.43,357.101 251.165,356.724 252.185,356.724C253.869,356.724 254.712,357.748 254.712,359.798L254.712,364.557L253.347,364.557ZM258.058,353.959C258.291,353.959 258.492,354.04 258.656,354.207C258.822,354.371 258.903,354.569 258.903,354.8C258.903,355.033 258.822,355.233 258.656,355.398C258.492,355.565 258.291,355.645 258.058,355.645C257.827,355.645 257.629,355.565 257.465,355.398C257.3,355.233 257.217,355.033 257.217,354.8C257.217,354.565 257.298,354.366 257.462,354.202C257.624,354.04 257.822,353.959 258.058,353.959ZM257.31,364.557L257.31,358.016L256.254,358.016L256.254,356.866L258.675,356.866L258.675,364.557L257.31,364.557ZM267.953,364.702L267.592,364.702L265.34,359.467L263.092,364.702L262.732,364.702L259.982,356.846L261.44,356.846L263.085,361.893L265.131,356.846L265.489,356.846L267.6,361.893L269.367,356.846L270.71,356.846L267.953,364.702ZM278.264,360.844L272.72,360.844C272.72,361.746 272.968,362.437 273.46,362.92C273.896,363.342 274.455,363.553 275.142,363.553C275.921,363.553 276.573,363.325 277.095,362.871L277.669,363.854C277.458,364.065 277.135,364.246 276.698,364.401C276.154,364.602 275.546,364.702 274.875,364.702C273.909,364.702 273.088,364.374 272.411,363.717C271.661,362.994 271.284,362.023 271.284,360.802C271.284,359.533 271.671,358.516 272.441,357.751C273.129,357.065 273.946,356.724 274.889,356.724C275.985,356.724 276.845,357.033 277.468,357.65C278.071,358.244 278.372,359.03 278.372,360.011C278.372,360.315 278.336,360.592 278.264,360.844ZM274.955,357.871C274.345,357.871 273.835,358.07 273.424,358.462C273.031,358.834 272.811,359.298 272.757,359.854L277.014,359.854C277.014,359.302 276.843,358.844 276.497,358.476C276.12,358.072 275.605,357.871 274.955,357.871ZM283.988,358.18C283.691,357.974 283.389,357.871 283.088,357.871C282.605,357.871 282.184,358.094 281.821,358.54C281.461,358.986 281.279,359.521 281.279,360.148L281.279,364.557L279.914,364.557L279.914,356.866L281.279,356.866L281.279,358.094C281.777,357.18 282.517,356.724 283.497,356.724C283.742,356.724 284.095,356.766 284.554,356.851L283.988,358.18ZM285.019,364.097L285.502,362.805C286.262,363.303 286.875,363.553 287.34,363.553C288.181,363.553 288.603,363.197 288.603,362.489C288.603,361.981 288.196,361.545 287.382,361.182C286.755,360.896 286.333,360.677 286.115,360.528C285.897,360.381 285.708,360.212 285.549,360.023C285.387,359.834 285.269,359.633 285.189,359.42C285.11,359.207 285.071,358.979 285.071,358.734C285.071,358.101 285.301,357.609 285.76,357.253C286.22,356.9 286.821,356.724 287.563,356.724C288.123,356.724 288.828,356.9 289.681,357.253L289.294,358.518C288.752,358.087 288.208,357.871 287.664,357.871C287.338,357.871 287.063,357.949 286.84,358.101C286.617,358.256 286.507,358.449 286.507,358.685C286.507,359.177 286.786,359.55 287.348,359.805L288.323,360.249C288.921,360.523 289.358,360.832 289.63,361.182C289.904,361.533 290.039,361.969 290.039,362.496C290.039,363.185 289.799,363.727 289.314,364.116C288.831,364.506 288.162,364.702 287.304,364.702C286.495,364.702 285.733,364.501 285.019,364.097ZM294.414,365.864C294.235,366.352 293.865,366.759 293.296,367.085C292.73,367.411 292.095,367.572 291.397,367.572L291.397,366.352C291.968,366.352 292.456,366.22 292.863,365.955C293.27,365.687 293.473,365.364 293.473,364.982C293.473,364.56 293.399,364.146 293.25,363.736C293.103,363.327 292.909,362.82 292.676,362.217L290.593,356.866L291.988,356.866L294.248,362.812L296.279,356.866L297.674,356.866L294.414,365.864ZM299.218,357.945L298.326,357.945L298.326,356.866L299.218,356.866L299.218,355.258L300.581,354.733L300.581,356.866L302.694,356.866L302.694,357.945L300.581,357.945L300.581,361.763C300.581,362.41 300.692,362.871 300.909,363.143C301.128,363.415 301.478,363.553 301.961,363.553C302.309,363.553 302.672,363.465 303.045,363.285L303.246,364.486C302.682,364.629 302.061,364.702 301.387,364.702C300.777,364.702 300.265,364.474 299.846,364.023C299.427,363.57 299.218,362.999 299.218,362.31L299.218,357.945ZM311.037,360.844L305.493,360.844C305.493,361.746 305.741,362.437 306.233,362.92C306.669,363.342 307.228,363.553 307.915,363.553C308.694,363.553 309.346,363.325 309.868,362.871L310.442,363.854C310.231,364.065 309.908,364.246 309.471,364.401C308.927,364.602 308.319,364.702 307.648,364.702C306.682,364.702 305.861,364.374 305.184,363.717C304.434,362.994 304.057,362.023 304.057,360.802C304.057,359.533 304.444,358.516 305.214,357.751C305.902,357.065 306.719,356.724 307.662,356.724C308.758,356.724 309.618,357.033 310.241,357.65C310.844,358.244 311.145,359.03 311.145,360.011C311.145,360.315 311.109,360.592 311.037,360.844ZM307.729,357.871C307.118,357.871 306.608,358.07 306.197,358.462C305.804,358.834 305.584,359.298 305.53,359.854L309.787,359.854C309.787,359.302 309.616,358.844 309.27,358.476C308.893,358.072 308.378,357.871 307.729,357.871ZM313.069,357.945L312.177,357.945L312.177,356.866L313.069,356.866L313.069,355.258L314.432,354.733L314.432,356.866L316.545,356.866L316.545,357.945L314.432,357.945L314.432,361.763C314.432,362.41 314.542,362.871 314.761,363.143C314.979,363.415 315.329,363.553 315.812,363.553C316.16,363.553 316.523,363.465 316.895,363.285L317.097,364.486C316.533,364.629 315.912,364.702 315.238,364.702C314.628,364.702 314.116,364.474 313.697,364.023C313.278,363.57 313.069,362.999 313.069,362.31L313.069,357.945ZM326.521,355.329L326.521,364.557L325.084,364.557L325.084,355.329L321.738,355.329L321.738,354.038L330.018,354.038L330.018,355.329L326.521,355.329ZM335.761,360.844L330.217,360.844C330.217,361.746 330.464,362.437 330.957,362.92C331.393,363.342 331.952,363.553 332.639,363.553C333.418,363.553 334.07,363.325 334.592,362.871L335.166,363.854C334.955,364.065 334.631,364.246 334.195,364.401C333.651,364.602 333.043,364.702 332.372,364.702C331.406,364.702 330.585,364.374 329.908,363.717C329.158,362.994 328.781,362.023 328.781,360.802C328.781,359.533 329.168,358.516 329.937,357.751C330.626,357.065 331.442,356.724 332.386,356.724C333.482,356.724 334.342,357.033 334.965,357.65C335.568,358.244 335.869,359.03 335.869,360.011C335.869,360.315 335.832,360.592 335.761,360.844ZM332.452,357.871C331.842,357.871 331.332,358.07 330.92,358.462C330.528,358.834 330.308,359.298 330.254,359.854L334.511,359.854C334.511,359.302 334.34,358.844 333.994,358.476C333.616,358.072 333.102,357.871 332.452,357.871ZM343.107,357.491L342.431,358.454C342.293,358.315 342.048,358.182 341.695,358.06C341.342,357.935 340.996,357.871 340.658,357.871C339.916,357.871 339.327,358.131 338.891,358.65C338.455,359.17 338.237,359.883 338.237,360.788C338.237,361.687 338.46,362.374 338.906,362.844C339.35,363.317 339.967,363.553 340.759,363.553C341.372,363.553 341.989,363.315 342.612,362.842L343.149,363.991C342.416,364.464 341.509,364.702 340.428,364.702C339.379,364.702 338.514,364.349 337.827,363.646C337.143,362.942 336.8,361.989 336.8,360.788C336.8,359.562 337.156,358.579 337.866,357.837C338.58,357.094 339.553,356.724 340.786,356.724C341.185,356.724 341.614,356.807 342.08,356.974C342.543,357.143 342.886,357.315 343.107,357.491ZM349.325,364.557L349.325,359.724C349.325,359.15 349.183,358.697 348.901,358.369C348.619,358.038 348.222,357.871 347.71,357.871C347.379,357.871 347.048,357.969 346.715,358.163C346.382,358.356 346.127,358.582 345.95,358.842L345.95,364.557L344.587,364.557L344.587,353.714L345.95,353.714L345.95,357.714C346.132,357.432 346.426,357.197 346.83,357.006C347.235,356.817 347.651,356.724 348.083,356.724C348.896,356.724 349.536,356.991 349.997,357.528C350.46,358.065 350.691,358.795 350.691,359.724L350.691,364.557L349.325,364.557ZM357.353,364.557L357.353,360.084C357.353,359.265 357.23,358.692 356.982,358.364C356.737,358.035 356.323,357.871 355.745,357.871C355.433,357.871 355.107,357.967 354.767,358.153C354.428,358.339 354.166,358.57 353.985,358.842L353.985,364.557L352.622,364.557L352.622,356.866L353.553,356.866L353.985,357.859C354.436,357.101 355.171,356.724 356.191,356.724C357.875,356.724 358.718,357.748 358.718,359.798L358.718,364.557L357.353,364.557ZM360.152,360.695C360.152,359.506 360.473,358.547 361.112,357.817C361.75,357.089 362.593,356.724 363.635,356.724C364.737,356.724 365.59,357.074 366.198,357.775C366.806,358.476 367.11,359.449 367.11,360.695C367.11,361.935 366.799,362.913 366.176,363.629C365.556,364.344 364.708,364.702 363.635,364.702C362.539,364.702 361.683,364.339 361.071,363.616C360.458,362.893 360.152,361.92 360.152,360.695ZM361.588,360.695C361.588,362.624 362.272,363.587 363.635,363.587C364.272,363.587 364.772,363.33 365.132,362.812C365.495,362.295 365.674,361.589 365.674,360.695C365.674,358.788 364.995,357.837 363.635,357.837C363.012,357.837 362.517,358.089 362.144,358.597C361.774,359.104 361.588,359.805 361.588,360.695ZM368.654,362.381L368.654,353.714L370.02,353.714L370.02,362.153C370.02,362.565 370.137,362.888 370.375,363.126C370.613,363.361 370.922,363.481 371.307,363.481L371.307,364.702C369.539,364.702 368.654,363.928 368.654,362.381ZM372.383,360.695C372.383,359.506 372.704,358.547 373.343,357.817C373.981,357.089 374.824,356.724 375.865,356.724C376.968,356.724 377.821,357.074 378.429,357.775C379.037,358.476 379.341,359.449 379.341,360.695C379.341,361.935 379.03,362.913 378.407,363.629C377.787,364.344 376.939,364.702 375.865,364.702C374.77,364.702 373.914,364.339 373.302,363.616C372.689,362.893 372.383,361.92 372.383,360.695ZM373.819,360.695C373.819,362.624 374.503,363.587 375.865,363.587C376.503,363.587 377.003,363.33 377.363,362.812C377.726,362.295 377.905,361.589 377.905,360.695C377.905,358.788 377.226,357.837 375.865,357.837C375.243,357.837 374.748,358.089 374.375,358.597C374.005,359.104 373.819,359.805 373.819,360.695ZM380.498,366.661L381.238,365.57C382.033,366.102 382.765,366.366 383.437,366.366C384.052,366.366 384.54,366.261 384.898,366.048C385.253,365.835 385.432,365.57 385.432,365.254C385.432,364.631 384.981,364.32 384.081,364.32C383.929,364.32 383.65,364.359 383.248,364.435C382.846,364.511 382.533,364.55 382.309,364.55C381.216,364.55 380.672,364.138 380.672,363.315C380.672,363.062 380.799,362.832 381.055,362.626C381.312,362.42 381.628,362.271 382.006,362.18C380.924,361.673 380.383,360.793 380.383,359.538C380.383,358.734 380.665,358.065 381.224,357.528C381.785,356.991 382.476,356.724 383.3,356.724C384.054,356.724 384.648,356.878 385.072,357.19L385.756,356.371L386.645,357.212L385.827,357.829C386.177,358.283 386.351,358.878 386.351,359.609C386.351,360.386 386.109,361.035 385.626,361.562C385.143,362.089 384.508,362.391 383.724,362.467L382.596,362.582C382.461,362.597 382.283,362.648 382.057,362.736C381.832,362.825 381.719,362.942 381.719,363.084C381.719,363.28 381.954,363.381 382.422,363.381C382.628,363.381 382.949,363.342 383.386,363.268C383.822,363.195 384.145,363.158 384.356,363.158C385.111,363.158 385.702,363.337 386.126,363.7C386.55,364.06 386.761,364.562 386.761,365.205C386.761,365.913 386.444,366.484 385.809,366.92C385.175,367.357 384.371,367.572 383.4,367.572C382.902,367.572 382.378,367.484 381.826,367.308C381.277,367.131 380.834,366.915 380.498,366.661ZM383.393,357.822C382.92,357.822 382.533,357.988 382.233,358.324C381.934,358.66 381.785,359.067 381.785,359.545C381.785,360.082 381.93,360.525 382.219,360.878C382.508,361.229 382.9,361.405 383.393,361.405C383.876,361.405 384.253,361.234 384.528,360.891C384.8,360.55 384.937,360.101 384.937,359.545C384.937,359.067 384.79,358.66 384.496,358.324C384.202,357.988 383.834,357.822 383.393,357.822ZM389.569,353.959C389.802,353.959 390.003,354.04 390.167,354.207C390.334,354.371 390.415,354.569 390.415,354.8C390.415,355.033 390.334,355.233 390.167,355.398C390.003,355.565 389.802,355.645 389.569,355.645C389.339,355.645 389.14,355.565 388.976,355.398C388.812,355.233 388.729,355.033 388.729,354.8C388.729,354.565 388.81,354.366 388.974,354.202C389.136,354.04 389.334,353.959 389.569,353.959ZM388.822,364.557L388.822,358.016L387.765,358.016L387.765,356.866L390.187,356.866L390.187,364.557L388.822,364.557ZM398.158,357.491L397.482,358.454C397.344,358.315 397.099,358.182 396.746,358.06C396.393,357.935 396.048,357.871 395.709,357.871C394.967,357.871 394.379,358.131 393.942,358.65C393.506,359.17 393.288,359.883 393.288,360.788C393.288,361.687 393.511,362.374 393.957,362.844C394.401,363.317 395.018,363.553 395.81,363.553C396.423,363.553 397.04,363.315 397.663,362.842L398.2,363.991C397.467,364.464 396.56,364.702 395.479,364.702C394.43,364.702 393.565,364.349 392.878,363.646C392.194,362.942 391.852,361.989 391.852,360.788C391.852,359.562 392.207,358.579 392.918,357.837C393.631,357.094 394.604,356.724 395.837,356.724C396.236,356.724 396.665,356.807 397.131,356.974C397.594,357.143 397.938,357.315 398.158,357.491ZM401.094,363.337L405.359,363.337L405.359,364.557L398.955,364.557L398.955,364.2L403.328,358.087L399.026,358.087L399.026,356.866L405.318,356.866L405.318,357.253L401.094,363.337ZM411.35,364.557L411.35,360.084C411.35,359.265 411.227,358.692 410.98,358.364C410.734,358.035 410.32,357.871 409.742,357.871C409.431,357.871 409.105,357.967 408.764,358.153C408.426,358.339 408.163,358.57 407.982,358.842L407.982,364.557L406.619,364.557L406.619,356.866L407.551,356.866L407.982,357.859C408.433,357.101 409.168,356.724 410.188,356.724C411.872,356.724 412.715,357.748 412.715,359.798L412.715,364.557L411.35,364.557ZM417.59,365.864C417.411,366.352 417.041,366.759 416.472,367.085C415.906,367.411 415.271,367.572 414.573,367.572L414.573,366.352C415.144,366.352 415.632,366.22 416.039,365.955C416.445,365.687 416.649,365.364 416.649,364.982C416.649,364.56 416.575,364.146 416.426,363.736C416.279,363.327 416.085,362.82 415.852,362.217L413.769,356.866L415.164,356.866L417.423,362.812L419.455,356.866L420.85,356.866L417.59,365.864Z" style="fill:rgb(0,61,143);"/>
    </g>
</svg>
